# xmcd
#
# Track frame offsets:
# 150
# 15969
# 32058
# 46336
# 59182
# 76451
# 88192
# 107149
# 120067
# 137926
#
# Disc length: 2015 seconds
#
# Revision: 0
# Processed by: cddbd v1.5.1PL0 Copyright (c) Steve Scherf et al.
# Submitted via: Axialis_AX_CDPlayer 2.6
#
DISCID=7e07dd0a
DTITLE=Billy Eli - Trailer Park Angel
DYEAR=1900
DGENRE=
TTITLE0=Burnin' Me Down
TTITLE1=Hey Maria
TTITLE2=Goin' Out To California
TTITLE3=Baby It'll Be Alright
TTITLE4=Lost Song # 19
TTITLE5=That's What I Think Too
TTITLE6=Talk To Me
TTITLE7=Madison
TTITLE8=Lost In A Hurricane
TTITLE9=I'm Still Here
EXTD=
EXTT0=
EXTT1=
EXTT2=
EXTT3=
EXTT4=
EXTT5=
EXTT6=
EXTT7=
EXTT8=
EXTT9=
PLAYORDER=
